<svg width="98" height="68" viewBox="0 0 98 68" fill="none" xmlns="http://www.w3.org/2000/svg">
<path d="M14.4458 54.816C13.2671 54.816 12.2244 54.408 11.3178 53.592C10.4111 52.776 9.84442 51.7107 9.61775 50.396C9.48175 49.716 9.39108 48.9227 9.34575 48.016C9.34575 47.064 9.34575 46.384 9.34575 45.976V31.832C9.34575 31.5147 9.30042 30.812 9.20975 29.724L5.87775 29.452C4.10975 29.3613 2.72708 28.8173 1.72975 27.82C0.732417 26.8227 0.23375 25.4853 0.23375 23.808C0.23375 22.2667 0.755083 20.952 1.79775 19.864C2.88575 18.776 4.26842 18.1413 5.94575 17.96C6.26308 17.9147 6.71642 17.892 7.30575 17.892H8.86975C8.96042 16.8947 9.00575 16.192 9.00575 15.784V10.344V7.556C9.09642 6.15066 9.30042 5.04 9.61775 4.224C9.98042 3.136 10.5924 2.27466 11.4538 1.64C12.3151 0.959998 13.2671 0.619998 14.3098 0.619998C15.3524 0.619998 16.3044 0.982664 17.1658 1.708C18.0271 2.388 18.6164 3.31733 18.9338 4.496C19.1604 5.35733 19.2738 6.4 19.2738 7.624C19.3191 9.8 19.3418 13.0413 19.3418 17.348L19.5457 19.456C19.9991 19.5467 20.4751 19.6373 20.9738 19.728C21.4724 19.8187 21.9938 19.9547 22.5378 20.136C23.8524 20.5893 24.7364 20.9747 25.1898 21.292C26.9124 22.4253 27.7738 23.8987 27.7738 25.712C27.7738 27.1173 27.4111 28.2733 26.6858 29.18C26.0058 30.0867 25.0764 30.7213 23.8978 31.084C23.3084 31.2653 22.5831 31.4013 21.7218 31.492C20.9058 31.5827 20.2711 31.6507 19.8178 31.696C19.7271 33.6 19.6818 35.0507 19.6818 36.048V44.004V47.948C19.6818 48.8547 19.5458 49.7613 19.2738 50.668C18.9564 51.9373 18.3444 52.9573 17.4378 53.728C16.5764 54.4533 15.5791 54.816 14.4458 54.816ZM95.3668 54C94.5508 54.4533 93.7348 54.68 92.9188 54.68C91.7401 54.68 90.7201 54.2493 89.8588 53.388C89.2241 52.7533 88.4988 51.6653 87.6828 50.124C87.4561 49.6707 87.2068 49.104 86.9348 48.424C86.7081 47.744 86.5268 47.2227 86.3908 46.86C85.5748 47.9027 84.9401 48.6733 84.4868 49.172C82.1295 52.1187 79.3641 53.592 76.1908 53.592C74.3321 53.592 72.4735 53.1387 70.6148 52.232C66.2175 50.056 63.6108 46.5427 62.7948 41.692C62.6135 40.6493 62.5228 39.4933 62.5228 38.224C62.5228 34.688 63.4068 31.356 65.1748 28.228C66.3988 26.052 68.0535 24.352 70.1388 23.128C72.2241 21.904 74.4681 21.292 76.8708 21.292C78.2308 21.292 79.5455 21.496 80.8148 21.904C81.9028 22.2667 82.8548 22.6973 83.6708 23.196C84.8948 24.0573 86.1415 24.488 87.4108 24.488C88.3175 24.488 89.1108 24.76 89.7908 25.304C90.4708 25.8027 90.9921 26.4827 91.3548 27.344C91.7175 28.16 91.9215 28.976 91.9668 29.792C92.2841 32.5573 92.8508 35.3227 93.6668 38.088C94.4828 40.808 95.5255 43.732 96.7948 46.86C97.2028 47.9027 97.4521 48.56 97.5428 48.832C97.6335 49.376 97.6788 49.7613 97.6788 49.988C97.6788 50.8493 97.4748 51.6427 97.0668 52.368C96.6588 53.048 96.0921 53.592 95.3668 54ZM74.2188 43.188C74.9895 43.6413 75.5108 43.868 75.7828 43.868C76.2361 43.868 76.7575 43.4827 77.3468 42.712C79.1148 40.3093 80.5881 37.3173 81.7668 33.736L79.3188 31.968C78.4575 31.3333 77.5961 31.016 76.7348 31.016C76.0548 31.016 75.4201 31.22 74.8308 31.628C74.2415 31.9907 73.7655 32.5347 73.4028 33.26C72.5868 34.892 72.1788 36.592 72.1788 38.36C72.1788 38.7227 72.2241 39.312 72.3148 40.128C72.5415 41.4427 73.1761 42.4627 74.2188 43.188Z" fill="black"/>
<path d="M54.2805 67.396C53.4645 67.396 52.6938 67.1693 51.9685 66.716C51.2431 66.308 50.6991 65.696 50.3365 64.88C49.8831 63.8827 49.6111 62.7493 49.5205 61.48C49.4751 60.392 49.4525 59.44 49.4525 58.624C49.4978 57.808 49.5205 57.1053 49.5205 56.516C49.5658 55.7907 49.5885 54.68 49.5885 53.184V51.484L47.0045 52.3C45.5991 52.708 44.2391 52.912 42.9245 52.912C39.9325 52.912 37.1671 51.756 34.6285 49.444C32.8605 47.7667 31.5005 45.84 30.5485 43.664C29.5965 41.488 29.1205 39.244 29.1205 36.932C29.1205 34.9373 29.4831 32.988 30.2085 31.084C30.8885 29.1347 31.9085 27.3667 33.2685 25.78C35.8978 22.6973 39.5698 21.156 44.2845 21.156C47.9111 21.156 51.2431 22.4253 54.2805 24.964C55.1418 25.6893 56.2298 26.3693 57.5445 27.004C59.1765 27.956 60.1285 29.248 60.4005 30.88C60.4458 31.1973 60.4685 31.696 60.4685 32.376C60.4685 33.2827 60.4458 33.9627 60.4005 34.416L59.9245 42.712C59.4258 49.4213 59.1765 54.9747 59.1765 59.372V62.024C59.1765 62.6587 59.1085 63.2707 58.9725 63.86C58.7005 64.8573 58.2018 65.6507 57.4765 66.24C56.7965 66.8747 55.9578 67.2373 54.9605 67.328L54.2805 67.396ZM45.4405 42.576C46.6191 41.9413 47.5711 41.08 48.2965 39.992C49.0218 38.904 49.7018 37.4987 50.3365 35.776C50.3365 35.6853 50.3138 35.4587 50.2685 35.096C50.2231 34.688 50.0871 34.3707 49.8605 34.144C48.9085 33.056 47.8658 32.172 46.7325 31.492C45.8258 30.9933 44.9418 30.744 44.0805 30.744C43.1285 30.744 42.2218 31.0387 41.3605 31.628C40.5445 32.172 39.9098 32.9427 39.4565 33.94C39.0031 34.892 38.7765 35.8893 38.7765 36.932C38.7765 38.428 39.3205 39.9013 40.4085 41.352C41.2245 42.576 42.1538 43.188 43.1965 43.188C43.8765 43.188 44.6245 42.984 45.4405 42.576Z" fill="#4D47DC"/>
</svg>
