<svg width="68" height="10" viewBox="0 0 68 10" fill="none" xmlns="http://www.w3.org/2000/svg">
<path d="M2.89 8.12C2.71667 8.12 2.56333 8.06 2.43 7.94C2.29667 7.82 2.21333 7.66333 2.18 7.47C2.16 7.37 2.14667 7.25333 2.14 7.12C2.14 6.98 2.14 6.88 2.14 6.82V4.74C2.14 4.69333 2.13333 4.59 2.12 4.43L1.63 4.39C1.37 4.37667 1.16667 4.29667 1.02 4.15C0.873333 4.00333 0.8 3.80667 0.8 3.56C0.8 3.33333 0.876667 3.14 1.03 2.98C1.19 2.82 1.39333 2.72667 1.64 2.7C1.68667 2.69333 1.75333 2.69 1.84 2.69H2.07C2.08333 2.54333 2.09 2.44 2.09 2.38V1.58V1.17C2.10333 0.963333 2.13333 0.8 2.18 0.679999C2.23333 0.52 2.32333 0.393333 2.45 0.3C2.57667 0.2 2.71667 0.15 2.87 0.15C3.02333 0.15 3.16333 0.203333 3.29 0.309999C3.41667 0.41 3.50333 0.546666 3.55 0.72C3.58333 0.846666 3.6 1 3.6 1.18C3.60667 1.5 3.61 1.97667 3.61 2.61L3.64 2.92C3.70667 2.93333 3.77667 2.94667 3.85 2.96C3.92333 2.97333 4 2.99333 4.08 3.02C4.27333 3.08667 4.40333 3.14333 4.47 3.19C4.72333 3.35667 4.85 3.57333 4.85 3.84C4.85 4.04667 4.79667 4.21667 4.69 4.35C4.59 4.48333 4.45333 4.57667 4.28 4.63C4.19333 4.65667 4.08667 4.67667 3.96 4.69C3.84 4.70333 3.74667 4.71333 3.68 4.72C3.66667 5 3.66 5.21333 3.66 5.36V6.53V7.11C3.66 7.24333 3.64 7.37667 3.6 7.51C3.55333 7.69667 3.46333 7.84667 3.33 7.96C3.20333 8.06667 3.05667 8.12 2.89 8.12ZM8.34805 8.2C8.06805 8.16667 7.89471 8.01667 7.82805 7.75C7.80805 7.65 7.79805 7.54 7.79805 7.42C7.79805 7.29333 7.79805 7.21333 7.79805 7.18L7.88805 5.31L7.86805 5.07C7.49471 5.39 7.23138 5.74333 7.07805 6.13C7.01138 6.28333 6.95138 6.45333 6.89805 6.64C6.84471 6.82 6.80805 6.94 6.78805 7C6.77471 7.05333 6.75138 7.13667 6.71805 7.25C6.69138 7.35667 6.66471 7.45 6.63805 7.53C6.57138 7.68333 6.48138 7.80333 6.36805 7.89C6.25471 7.97 6.13138 8.01 5.99805 8.01C5.83138 8.01 5.68805 7.96333 5.56805 7.87C5.44805 7.77 5.37138 7.63333 5.33805 7.46C5.25805 7.09333 5.20805 6.72 5.18805 6.34L5.04805 3.37C5.00805 2.51667 4.97471 1.87667 4.94805 1.45C4.94138 1.39667 4.93138 1.32667 4.91805 1.24C4.89805 1.15333 4.88471 1.08333 4.87805 1.03C4.87138 0.996666 4.86805 0.943333 4.86805 0.869999C4.86805 0.709999 4.90805 0.569999 4.98805 0.449999C5.06138 0.323333 5.16805 0.236666 5.30805 0.19C5.37471 0.17 5.44138 0.16 5.50805 0.16C5.64138 0.16 5.76138 0.2 5.86805 0.28C5.98138 0.353333 6.06471 0.46 6.11805 0.6C6.18471 0.76 6.22471 0.936666 6.23805 1.13L6.41805 4.22C6.41805 4.24667 6.42471 4.36 6.43805 4.56C6.59805 4.4 6.67805 4.32 6.67805 4.32L6.88805 4.13C7.16138 3.89 7.34138 3.73667 7.42805 3.67C7.53471 3.59667 7.69138 3.52 7.89805 3.44C8.01138 3.40667 8.11138 3.39 8.19805 3.39C8.38471 3.39 8.55138 3.44667 8.69805 3.56C8.85138 3.67333 8.96138 3.83 9.02805 4.03C9.11471 4.29667 9.16805 4.59333 9.18805 4.92C9.20805 5.16 9.21805 5.39667 9.21805 5.63C9.21805 6.15 9.17138 6.76667 9.07805 7.48C9.07138 7.61333 9.02805 7.74667 8.94805 7.88C8.89471 7.98667 8.82471 8.06667 8.73805 8.12C8.65138 8.18 8.55471 8.21 8.44805 8.21C8.40138 8.21 8.36805 8.20667 8.34805 8.2ZM11.4686 7.93C11.0953 7.82333 10.7819 7.64 10.5286 7.38C9.91526 6.73333 9.60859 6.03 9.60859 5.27C9.60859 4.93667 9.66193 4.60667 9.76859 4.28C9.89526 3.88 10.1253 3.56333 10.4586 3.33C10.7919 3.09 11.1619 2.97 11.5686 2.97C11.7753 2.97 11.9786 3 12.1786 3.06C12.6853 3.22667 13.1019 3.52667 13.4286 3.96C13.6219 4.20667 13.7186 4.46 13.7186 4.72C13.7186 4.95333 13.6419 5.19333 13.4886 5.44C13.2886 5.75333 12.9986 5.98 12.6186 6.12C12.2786 6.24 11.9219 6.29333 11.5486 6.28H11.2386C11.3853 6.51333 11.6019 6.67 11.8886 6.75L12.1186 6.8C12.1719 6.80667 12.2519 6.82333 12.3586 6.85C12.5053 6.89 12.6186 6.94 12.6986 7C12.7786 7.06 12.8186 7.16 12.8186 7.3C12.8186 7.47333 12.7286 7.62667 12.5486 7.76C12.3486 7.91333 12.1219 7.99 11.8686 7.99C11.7419 7.99 11.6086 7.97 11.4686 7.93ZM10.9286 4.86C11.1419 4.97333 11.3753 5.03 11.6286 5.03C11.8019 5.03 11.9586 5.00667 12.0986 4.96C12.2386 4.90667 12.3486 4.83 12.4286 4.73C12.3219 4.55667 12.1386 4.41 11.8786 4.29C11.7786 4.24333 11.6753 4.22 11.5686 4.22C11.4019 4.22 11.2586 4.28 11.1386 4.4C11.0253 4.51333 10.9553 4.66667 10.9286 4.86ZM38.9405 8C38.8205 8.06667 38.7005 8.1 38.5805 8.1C38.4072 8.1 38.2572 8.03667 38.1305 7.91C38.0372 7.81667 37.9305 7.65667 37.8105 7.43C37.7772 7.36333 37.7405 7.28 37.7005 7.18C37.6672 7.08 37.6405 7.00333 37.6205 6.95C37.5005 7.10333 37.4072 7.21667 37.3405 7.29C36.9939 7.72333 36.5872 7.94 36.1205 7.94C35.8472 7.94 35.5739 7.87333 35.3005 7.74C34.6539 7.42 34.2705 6.90333 34.1505 6.19C34.1239 6.03667 34.1105 5.86667 34.1105 5.68C34.1105 5.16 34.2405 4.67 34.5005 4.21C34.6805 3.89 34.9239 3.64 35.2305 3.46C35.5372 3.28 35.8672 3.19 36.2205 3.19C36.4205 3.19 36.6139 3.22 36.8005 3.28C36.9605 3.33333 37.1005 3.39667 37.2205 3.47C37.4005 3.59667 37.5839 3.66 37.7705 3.66C37.9039 3.66 38.0205 3.7 38.1205 3.78C38.2205 3.85333 38.2972 3.95333 38.3505 4.08C38.4039 4.2 38.4339 4.32 38.4405 4.44C38.4872 4.84667 38.5705 5.25333 38.6905 5.66C38.8105 6.06 38.9639 6.49 39.1505 6.95C39.2105 7.10333 39.2472 7.2 39.2605 7.24C39.2739 7.32 39.2805 7.37667 39.2805 7.41C39.2805 7.53667 39.2505 7.65333 39.1905 7.76C39.1305 7.86 39.0472 7.94 38.9405 8ZM35.8305 6.41C35.9439 6.47667 36.0205 6.51 36.0605 6.51C36.1272 6.51 36.2039 6.45333 36.2905 6.34C36.5505 5.98667 36.7672 5.54667 36.9405 5.02L36.5805 4.76C36.4539 4.66667 36.3272 4.62 36.2005 4.62C36.1005 4.62 36.0072 4.65 35.9205 4.71C35.8339 4.76333 35.7639 4.84333 35.7105 4.95C35.5905 5.19 35.5305 5.44 35.5305 5.7C35.5305 5.75333 35.5372 5.84 35.5505 5.96C35.5839 6.15333 35.6772 6.30333 35.8305 6.41ZM41.4263 8.11C40.813 8.09 40.323 7.86667 39.9563 7.44C39.7363 7.18667 39.5697 6.9 39.4563 6.58C39.343 6.26 39.2863 5.93333 39.2863 5.6C39.2863 5.07333 39.423 4.58667 39.6963 4.14C40.0097 3.65333 40.413 3.35 40.9063 3.23C41.0063 3.21 41.1063 3.2 41.2063 3.2C41.533 3.2 41.8663 3.29333 42.2063 3.48C42.5463 3.66667 42.7897 3.89333 42.9363 4.16C43.0163 4.32 43.0563 4.46333 43.0563 4.59C43.0563 4.63667 43.053 4.67333 43.0463 4.7C43.0197 4.92 42.9297 5.10667 42.7763 5.26C42.6563 5.28 42.5497 5.29 42.4563 5.29C42.243 5.29 42.0697 5.22333 41.9363 5.09C41.9097 5.06333 41.883 5.03333 41.8563 5C41.8363 4.96 41.813 4.92667 41.7863 4.9C41.693 4.79333 41.6163 4.72 41.5563 4.68C41.4297 4.60667 41.3263 4.57 41.2463 4.57C41.1197 4.57 40.9997 4.65 40.8863 4.81C40.7197 5.05667 40.6363 5.32 40.6363 5.6C40.6363 5.68667 40.6463 5.77667 40.6663 5.87C40.6997 5.99667 40.733 6.1 40.7663 6.18C40.9263 6.57333 41.1863 6.77 41.5463 6.77C41.7997 6.78333 41.993 6.79667 42.1263 6.81C42.1463 6.81 42.203 6.81667 42.2963 6.83C42.3963 6.84333 42.4763 6.87 42.5363 6.91C42.5963 6.95 42.6397 7.01 42.6663 7.09C42.6863 7.15 42.6963 7.20667 42.6963 7.26C42.6963 7.42667 42.623 7.58333 42.4763 7.73C42.223 7.98333 41.873 8.11 41.4263 8.11ZM46.5609 8.2C46.2809 8.16667 46.1076 8.01667 46.0409 7.75C46.0209 7.65 46.0109 7.54 46.0109 7.42C46.0109 7.29333 46.0109 7.21333 46.0109 7.18L46.1009 5.31L46.0809 5.07C45.7076 5.39 45.4443 5.74333 45.2909 6.13C45.2243 6.28333 45.1643 6.45333 45.1109 6.64C45.0576 6.82 45.0209 6.94 45.0009 7C44.9876 7.05333 44.9643 7.13667 44.9309 7.25C44.9043 7.35667 44.8776 7.45 44.8509 7.53C44.7843 7.68333 44.6943 7.80333 44.5809 7.89C44.4676 7.97 44.3443 8.01 44.2109 8.01C44.0443 8.01 43.9009 7.96333 43.7809 7.87C43.6609 7.77 43.5843 7.63333 43.5509 7.46C43.4709 7.09333 43.4209 6.72 43.4009 6.34L43.2609 3.37C43.2209 2.51667 43.1876 1.87667 43.1609 1.45C43.1543 1.39667 43.1443 1.32667 43.1309 1.24C43.1109 1.15333 43.0976 1.08333 43.0909 1.03C43.0843 0.996666 43.0809 0.943333 43.0809 0.869999C43.0809 0.709999 43.1209 0.569999 43.2009 0.449999C43.2743 0.323333 43.3809 0.236666 43.5209 0.19C43.5876 0.17 43.6543 0.16 43.7209 0.16C43.8543 0.16 43.9743 0.2 44.0809 0.28C44.1943 0.353333 44.2776 0.46 44.3309 0.6C44.3976 0.76 44.4376 0.936666 44.4509 1.13L44.6309 4.22C44.6309 4.24667 44.6376 4.36 44.6509 4.56C44.8109 4.4 44.8909 4.32 44.8909 4.32L45.1009 4.13C45.3743 3.89 45.5543 3.73667 45.6409 3.67C45.7476 3.59667 45.9043 3.52 46.1109 3.44C46.2243 3.40667 46.3243 3.39 46.4109 3.39C46.5976 3.39 46.7643 3.44667 46.9109 3.56C47.0643 3.67333 47.1743 3.83 47.2409 4.03C47.3276 4.29667 47.3809 4.59333 47.4009 4.92C47.4209 5.16 47.4309 5.39667 47.4309 5.63C47.4309 6.15 47.3843 6.76667 47.2909 7.48C47.2843 7.61333 47.2409 7.74667 47.1609 7.88C47.1076 7.98667 47.0376 8.06667 46.9509 8.12C46.8643 8.18 46.7676 8.21 46.6609 8.21C46.6143 8.21 46.5809 8.20667 46.5609 8.2ZM48.8109 2.51C48.6242 2.51 48.4675 2.45 48.3409 2.33C48.2142 2.21 48.1509 2.06 48.1509 1.88C48.1509 1.70667 48.2109 1.56 48.3309 1.44C48.4509 1.31333 48.5975 1.25 48.7709 1.25C48.9575 1.25 49.1142 1.31333 49.2409 1.44C49.3742 1.56 49.4409 1.71 49.4409 1.89C49.4409 2.06333 49.3775 2.21 49.2509 2.33C49.1309 2.45 48.9842 2.51 48.8109 2.51ZM48.9009 8.02C48.7742 8.02 48.6575 7.98667 48.5509 7.92C48.4442 7.84667 48.3675 7.75 48.3209 7.63C48.2742 7.49 48.2509 7.36333 48.2509 7.25C48.2375 6.53 48.2242 5.45 48.2109 4.01C48.2109 3.88333 48.2275 3.77333 48.2609 3.68C48.2942 3.54 48.3675 3.43 48.4809 3.35C48.5942 3.27 48.7209 3.23 48.8609 3.23C48.9875 3.23 49.1042 3.26667 49.2109 3.34C49.3175 3.41333 49.3942 3.51333 49.4409 3.64C49.4875 3.77333 49.5109 3.92333 49.5109 4.09C49.5175 4.50333 49.5242 5.06667 49.5309 5.78C49.5442 6.48667 49.5475 6.95333 49.5409 7.18C49.5409 7.34667 49.5242 7.48333 49.4909 7.59C49.4509 7.72333 49.3742 7.83 49.2609 7.91C49.1542 7.98333 49.0342 8.02 48.9009 8.02ZM51.8397 7.93C51.4664 7.82333 51.153 7.64 50.8997 7.38C50.2864 6.73333 49.9797 6.03 49.9797 5.27C49.9797 4.93667 50.033 4.60667 50.1397 4.28C50.2664 3.88 50.4964 3.56333 50.8297 3.33C51.163 3.09 51.533 2.97 51.9397 2.97C52.1464 2.97 52.3497 3 52.5497 3.06C53.0564 3.22667 53.473 3.52667 53.7997 3.96C53.993 4.20667 54.0897 4.46 54.0897 4.72C54.0897 4.95333 54.013 5.19333 53.8597 5.44C53.6597 5.75333 53.3697 5.98 52.9897 6.12C52.6497 6.24 52.293 6.29333 51.9197 6.28H51.6097C51.7564 6.51333 51.973 6.67 52.2597 6.75L52.4897 6.8C52.543 6.80667 52.623 6.82333 52.7297 6.85C52.8764 6.89 52.9897 6.94 53.0697 7C53.1497 7.06 53.1897 7.16 53.1897 7.3C53.1897 7.47333 53.0997 7.62667 52.9197 7.76C52.7197 7.91333 52.493 7.99 52.2397 7.99C52.113 7.99 51.9797 7.97 51.8397 7.93ZM51.2997 4.86C51.513 4.97333 51.7464 5.03 51.9997 5.03C52.173 5.03 52.3297 5.00667 52.4697 4.96C52.6097 4.90667 52.7197 4.83 52.7997 4.73C52.693 4.55667 52.5097 4.41 52.2497 4.29C52.1497 4.24333 52.0464 4.22 51.9397 4.22C51.773 4.22 51.6297 4.28 51.5097 4.4C51.3964 4.51333 51.3264 4.66667 51.2997 4.86ZM55.6263 7.51C55.3997 7.17667 55.2197 6.78333 55.0863 6.33L54.6863 4.81C54.5997 4.42333 54.493 4.12667 54.3663 3.92C54.3063 3.80667 54.2763 3.69333 54.2763 3.58C54.2763 3.38 54.3463 3.22 54.4863 3.1C54.6197 2.96667 54.7797 2.9 54.9663 2.9C55.0863 2.9 55.1997 2.93 55.3063 2.99C55.513 3.08333 55.6663 3.24667 55.7663 3.48C55.8597 3.68667 55.943 3.92667 56.0163 4.2L56.1863 4.86C56.253 5.15333 56.3063 5.37333 56.3463 5.52C56.3597 5.58 56.3763 5.64 56.3963 5.7C56.4163 5.76 56.4363 5.81667 56.4563 5.87L56.5863 5.55C56.6663 5.36333 56.723 5.22 56.7563 5.12C56.8163 4.97333 56.893 4.78667 56.9863 4.56C57.0863 4.32667 57.1697 4.13667 57.2363 3.99C57.323 3.80333 57.4363 3.65 57.5763 3.53C57.7163 3.39 57.8797 3.32 58.0663 3.32C58.1797 3.32 58.293 3.35333 58.4063 3.42C58.4997 3.48667 58.5697 3.57 58.6163 3.67C58.6697 3.77 58.6963 3.88 58.6963 4C58.6963 4.04667 58.6897 4.11 58.6763 4.19C58.643 4.31667 58.613 4.40333 58.5863 4.45C58.453 4.71667 58.3363 4.98 58.2363 5.24C58.1363 5.49333 57.9997 5.86667 57.8263 6.36L57.6363 6.89C57.5897 7.02333 57.513 7.19 57.4063 7.39C57.293 7.61 57.1597 7.78 57.0063 7.9C56.853 8.01333 56.6897 8.07 56.5163 8.07C56.3563 8.07 56.1997 8.02333 56.0463 7.93C55.893 7.83 55.753 7.69 55.6263 7.51ZM60.7557 7.93C60.3824 7.82333 60.069 7.64 59.8157 7.38C59.2024 6.73333 58.8957 6.03 58.8957 5.27C58.8957 4.93667 58.949 4.60667 59.0557 4.28C59.1824 3.88 59.4124 3.56333 59.7457 3.33C60.079 3.09 60.449 2.97 60.8557 2.97C61.0624 2.97 61.2657 3 61.4657 3.06C61.9724 3.22667 62.389 3.52667 62.7157 3.96C62.909 4.20667 63.0057 4.46 63.0057 4.72C63.0057 4.95333 62.929 5.19333 62.7757 5.44C62.5757 5.75333 62.2857 5.98 61.9057 6.12C61.5657 6.24 61.209 6.29333 60.8357 6.28H60.5257C60.6724 6.51333 60.889 6.67 61.1757 6.75L61.4057 6.8C61.459 6.80667 61.539 6.82333 61.6457 6.85C61.7924 6.89 61.9057 6.94 61.9857 7C62.0657 7.06 62.1057 7.16 62.1057 7.3C62.1057 7.47333 62.0157 7.62667 61.8357 7.76C61.6357 7.91333 61.409 7.99 61.1557 7.99C61.029 7.99 60.8957 7.97 60.7557 7.93ZM60.2157 4.86C60.429 4.97333 60.6624 5.03 60.9157 5.03C61.089 5.03 61.2457 5.00667 61.3857 4.96C61.5257 4.90667 61.6357 4.83 61.7157 4.73C61.609 4.55667 61.4257 4.41 61.1657 4.29C61.0657 4.24333 60.9624 4.22 60.8557 4.22C60.689 4.22 60.5457 4.28 60.4257 4.4C60.3124 4.51333 60.2424 4.66667 60.2157 4.86ZM64.4023 8.01C64.1223 8.01 63.9157 7.88 63.7823 7.62C63.7157 7.46667 63.669 7.32 63.6423 7.18C63.549 6.60667 63.4157 5.74 63.2423 4.58L63.2123 4.33C63.179 4.17667 63.159 4.02333 63.1523 3.87L63.1423 3.72C63.1423 3.63333 63.1523 3.55 63.1723 3.47C63.2057 3.31667 63.2823 3.19667 63.4023 3.11C63.5157 3.01667 63.6523 2.97 63.8123 2.97C63.939 2.97 64.0557 3.00667 64.1623 3.08C64.269 3.15333 64.3457 3.25333 64.3923 3.38C64.4257 3.44667 64.4523 3.54333 64.4723 3.67L64.5323 3.9C64.579 3.85333 64.6223 3.80667 64.6623 3.76C64.7023 3.70667 64.7457 3.65667 64.7923 3.61C65.159 3.26333 65.579 3.09 66.0523 3.09C66.439 3.09 66.8123 3.19667 67.1723 3.41C67.3857 3.52333 67.5157 3.69333 67.5623 3.92C67.5757 3.98667 67.5823 4.04 67.5823 4.08C67.5823 4.22 67.539 4.34 67.4523 4.44C67.3657 4.54 67.2523 4.59667 67.1123 4.61L67.0123 4.62C66.939 4.62 66.8223 4.60667 66.6623 4.58C66.6157 4.57333 66.5623 4.56 66.5023 4.54C66.449 4.51333 66.409 4.49667 66.3823 4.49C66.2623 4.45 66.1557 4.43 66.0623 4.43C65.9557 4.43 65.859 4.46333 65.7723 4.53C65.6857 4.59 65.6023 4.68667 65.5223 4.82C65.4357 4.96 65.3723 5.11 65.3323 5.27C65.299 5.43 65.2723 5.61667 65.2523 5.83L65.1423 7.2C65.129 7.33333 65.0923 7.46333 65.0323 7.59C64.9057 7.86333 64.6957 8.00333 64.4023 8.01Z" fill="black"/>
<path d="M17.6152 9.97C17.4952 9.97 17.3819 9.93667 17.2752 9.87C17.1686 9.81 17.0886 9.72 17.0352 9.6C16.9686 9.45333 16.9286 9.28667 16.9152 9.1C16.9086 8.94 16.9052 8.8 16.9052 8.68C16.9119 8.56 16.9152 8.45667 16.9152 8.37C16.9219 8.26333 16.9252 8.1 16.9252 7.88V7.63L16.5452 7.75C16.3386 7.81 16.1386 7.84 15.9452 7.84C15.5052 7.84 15.0986 7.67 14.7252 7.33C14.4652 7.08333 14.2652 6.8 14.1252 6.48C13.9852 6.16 13.9152 5.83 13.9152 5.49C13.9152 5.19667 13.9686 4.91 14.0752 4.63C14.1752 4.34333 14.3252 4.08333 14.5252 3.85C14.9119 3.39667 15.4519 3.17 16.1452 3.17C16.6786 3.17 17.1686 3.35667 17.6152 3.73C17.7419 3.83667 17.9019 3.93667 18.0952 4.03C18.3352 4.17 18.4752 4.36 18.5152 4.6C18.5219 4.64667 18.5252 4.72 18.5252 4.82C18.5252 4.95333 18.5219 5.05333 18.5152 5.12L18.4452 6.34C18.3719 7.32667 18.3352 8.14333 18.3352 8.79V9.18C18.3352 9.27333 18.3252 9.36333 18.3052 9.45C18.2652 9.59667 18.1919 9.71333 18.0852 9.8C17.9852 9.89333 17.8619 9.94667 17.7152 9.96L17.6152 9.97ZM16.3152 6.32C16.4886 6.22667 16.6286 6.1 16.7352 5.94C16.8419 5.78 16.9419 5.57333 17.0352 5.32C17.0352 5.30667 17.0319 5.27333 17.0252 5.22C17.0186 5.16 16.9986 5.11333 16.9652 5.08C16.8252 4.92 16.6719 4.79 16.5052 4.69C16.3719 4.61667 16.2419 4.58 16.1152 4.58C15.9752 4.58 15.8419 4.62333 15.7152 4.71C15.5952 4.79 15.5019 4.90333 15.4352 5.05C15.3686 5.19 15.3352 5.33667 15.3352 5.49C15.3352 5.71 15.4152 5.92667 15.5752 6.14C15.6952 6.32 15.8319 6.41 15.9852 6.41C16.0852 6.41 16.1952 6.38 16.3152 6.32ZM21.0873 8.13C20.7473 8.13 20.4173 8.02 20.0973 7.8C19.7707 7.56667 19.534 7.29333 19.3873 6.98C19.014 6.21333 18.8273 5.43333 18.8273 4.64C18.8273 4.42667 18.834 4.26333 18.8473 4.15C18.8673 3.95667 18.9073 3.77667 18.9673 3.61C19.0207 3.47 19.1073 3.36 19.2273 3.28C19.354 3.19333 19.4907 3.15 19.6373 3.15C19.6973 3.15 19.7407 3.15333 19.7673 3.16C19.9273 3.19333 20.0573 3.27667 20.1573 3.41C20.2573 3.53667 20.3107 3.68667 20.3173 3.86V3.94C20.3173 4.03333 20.314 4.1 20.3073 4.14C20.2807 4.29333 20.2673 4.46 20.2673 4.64C20.2673 5.12667 20.384 5.64667 20.6173 6.2C20.664 6.32 20.744 6.43667 20.8573 6.55C20.9307 6.62333 20.994 6.66 21.0473 6.66C21.1073 6.66 21.174 6.61667 21.2473 6.53C21.4673 6.28333 21.6173 5.96 21.6973 5.56C21.7373 5.36667 21.7573 5.17 21.7573 4.97C21.7573 4.74333 21.734 4.52667 21.6873 4.32C21.6473 4.12 21.6273 3.97 21.6273 3.87C21.6273 3.65667 21.6873 3.48 21.8073 3.34C21.934 3.2 22.094 3.13 22.2873 3.13C22.4073 3.13 22.524 3.16333 22.6373 3.23C22.7507 3.29 22.8407 3.38 22.9073 3.5C22.9673 3.61333 23.0207 3.75667 23.0673 3.93C23.154 4.23 23.1973 4.55667 23.1973 4.91C23.1973 5.22333 23.164 5.56 23.0973 5.92C23.044 6.20667 22.944 6.49667 22.7973 6.79C22.6573 7.08333 22.4673 7.35 22.2273 7.59C21.9007 7.95 21.5207 8.13 21.0873 8.13ZM24.5823 2.51C24.3957 2.51 24.239 2.45 24.1123 2.33C23.9857 2.21 23.9223 2.06 23.9223 1.88C23.9223 1.70667 23.9823 1.56 24.1023 1.44C24.2223 1.31333 24.369 1.25 24.5423 1.25C24.729 1.25 24.8857 1.31333 25.0123 1.44C25.1457 1.56 25.2123 1.71 25.2123 1.89C25.2123 2.06333 25.149 2.21 25.0223 2.33C24.9023 2.45 24.7557 2.51 24.5823 2.51ZM24.6723 8.02C24.5457 8.02 24.429 7.98667 24.3223 7.92C24.2157 7.84667 24.139 7.75 24.0923 7.63C24.0457 7.49 24.0223 7.36333 24.0223 7.25C24.009 6.53 23.9957 5.45 23.9823 4.01C23.9823 3.88333 23.999 3.77333 24.0323 3.68C24.0657 3.54 24.139 3.43 24.2523 3.35C24.3657 3.27 24.4923 3.23 24.6323 3.23C24.759 3.23 24.8757 3.26667 24.9823 3.34C25.089 3.41333 25.1657 3.51333 25.2123 3.64C25.259 3.77333 25.2823 3.92333 25.2823 4.09C25.289 4.50333 25.2957 5.06667 25.3023 5.78C25.3157 6.48667 25.319 6.95333 25.3123 7.18C25.3123 7.34667 25.2957 7.48333 25.2623 7.59C25.2223 7.72333 25.1457 7.83 25.0323 7.91C24.9257 7.98333 24.8057 8.02 24.6723 8.02ZM27.6112 7.93C27.2378 7.82333 26.9245 7.64 26.6712 7.38C26.0578 6.73333 25.7512 6.03 25.7512 5.27C25.7512 4.93667 25.8045 4.60667 25.9112 4.28C26.0378 3.88 26.2678 3.56333 26.6012 3.33C26.9345 3.09 27.3045 2.97 27.7112 2.97C27.9178 2.97 28.1212 3 28.3212 3.06C28.8278 3.22667 29.2445 3.52667 29.5712 3.96C29.7645 4.20667 29.8612 4.46 29.8612 4.72C29.8612 4.95333 29.7845 5.19333 29.6312 5.44C29.4312 5.75333 29.1412 5.98 28.7612 6.12C28.4212 6.24 28.0645 6.29333 27.6912 6.28H27.3812C27.5278 6.51333 27.7445 6.67 28.0312 6.75L28.2612 6.8C28.3145 6.80667 28.3945 6.82333 28.5012 6.85C28.6478 6.89 28.7612 6.94 28.8412 7C28.9212 7.06 28.9612 7.16 28.9612 7.3C28.9612 7.47333 28.8712 7.62667 28.6912 7.76C28.4912 7.91333 28.2645 7.99 28.0112 7.99C27.8845 7.99 27.7512 7.97 27.6112 7.93ZM27.0712 4.86C27.2845 4.97333 27.5178 5.03 27.7712 5.03C27.9445 5.03 28.1012 5.00667 28.2412 4.96C28.3812 4.90667 28.4912 4.83 28.5712 4.73C28.4645 4.55667 28.2812 4.41 28.0212 4.29C27.9212 4.24333 27.8178 4.22 27.7112 4.22C27.5445 4.22 27.4012 4.28 27.2812 4.4C27.1678 4.51333 27.0978 4.66667 27.0712 4.86ZM31.9525 8.12C31.7792 8.12 31.6258 8.06 31.4925 7.94C31.3592 7.82 31.2758 7.66333 31.2425 7.47C31.2225 7.37 31.2092 7.25333 31.2025 7.12C31.2025 6.98 31.2025 6.88 31.2025 6.82V4.74C31.2025 4.69333 31.1958 4.59 31.1825 4.43L30.6925 4.39C30.4325 4.37667 30.2292 4.29667 30.0825 4.15C29.9358 4.00333 29.8625 3.80667 29.8625 3.56C29.8625 3.33333 29.9392 3.14 30.0925 2.98C30.2525 2.82 30.4558 2.72667 30.7025 2.7C30.7492 2.69333 30.8158 2.69 30.9025 2.69H31.1325C31.1458 2.54333 31.1525 2.44 31.1525 2.38V1.58V1.17C31.1658 0.963333 31.1958 0.8 31.2425 0.679999C31.2958 0.52 31.3858 0.393333 31.5125 0.3C31.6392 0.2 31.7792 0.15 31.9325 0.15C32.0858 0.15 32.2258 0.203333 32.3525 0.309999C32.4792 0.41 32.5658 0.546666 32.6125 0.72C32.6458 0.846666 32.6625 1 32.6625 1.18C32.6692 1.5 32.6725 1.97667 32.6725 2.61L32.7025 2.92C32.7692 2.93333 32.8392 2.94667 32.9125 2.96C32.9858 2.97333 33.0625 2.99333 33.1425 3.02C33.3358 3.08667 33.4658 3.14333 33.5325 3.19C33.7858 3.35667 33.9125 3.57333 33.9125 3.84C33.9125 4.04667 33.8592 4.21667 33.7525 4.35C33.6525 4.48333 33.5158 4.57667 33.3425 4.63C33.2558 4.65667 33.1492 4.67667 33.0225 4.69C32.9025 4.70333 32.8092 4.71333 32.7425 4.72C32.7292 5 32.7225 5.21333 32.7225 5.36V6.53V7.11C32.7225 7.24333 32.7025 7.37667 32.6625 7.51C32.6158 7.69667 32.5258 7.84667 32.3925 7.96C32.2658 8.06667 32.1192 8.12 31.9525 8.12Z" fill="#4D47DC"/>
</svg>
